<svg id="Arrow_Button" data-name="Arrow Button" xmlns="http://www.w3.org/2000/svg" viewBox="0 0 574.16 314.78"><defs><style>.cls-1{fill:#3f3f3f;}.cls-2{fill:#fff;}</style></defs><rect class="cls-1" width="574.16" height="314.78" rx="157.39"/><path class="cls-2" d="M158.74,145.11H145.8V181h-5.29V145.11H127.6v-4.34h31.14Z"/><path class="cls-2" d="M204.38,140.77v27.37a12.89,12.89,0,0,1-3.58,9.32,14.4,14.4,0,0,1-9.64,4.06l-1.41.06q-6.62,0-10.54-3.57t-4-9.81V140.77h5.26V168a9.22,9.22,0,0,0,2.4,6.79q2.4,2.42,6.86,2.42t6.9-2.41a9.2,9.2,0,0,0,2.39-6.77V140.77Z"/><path class="cls-2" d="M238.85,164.74h-9.46V181h-5.34V140.77h13.33q6.8,0,10.47,3.09t3.66,9a10.85,10.85,0,0,1-2,6.55,12.16,12.16,0,0,1-5.66,4.18l9.46,17.08V181h-5.7Zm-9.46-4.34h8.16a9.2,9.2,0,0,0,6.29-2.05,7,7,0,0,0,2.33-5.49,7.31,7.31,0,0,0-2.22-5.73q-2.23-2-6.43-2h-8.13Z"/><path class="cls-2" d="M301.21,181h-5.33l-20.27-31v31h-5.34V140.77h5.34l20.32,31.16V140.77h5.28Z"/><path class="cls-2" d="M378.28,162.2a24.84,24.84,0,0,1-2,10.32,15.15,15.15,0,0,1-5.64,6.74A15.57,15.57,0,0,1,348,172.58a24,24,0,0,1-2.09-10v-2.91a24.56,24.56,0,0,1,2-10.26,15,15,0,0,1,14.16-9.18,15.6,15.6,0,0,1,8.53,2.34,15.12,15.12,0,0,1,5.68,6.77,25,25,0,0,1,2,10.33ZM373,159.6q0-7.17-2.88-11a9.46,9.46,0,0,0-8-3.83,9.35,9.35,0,0,0-7.92,3.83q-2.9,3.82-3,10.63v3q0,6.93,2.92,10.9a10.23,10.23,0,0,0,16,.23q2.82-3.75,2.9-10.75Z"/><path class="cls-2" d="M419.77,163.25H402.88V181h-5.31V140.77h24.94v4.34H402.88v13.8h16.89Z"/><path class="cls-2" d="M462.4,163.25H445.51V181H440.2V140.77h24.94v4.34H445.51v13.8H462.4Z"/></svg>