<svg id="Layer_1" data-name="Layer 1" xmlns="http://www.w3.org/2000/svg" viewBox="0 0 947.99 801.37"><defs><style>.cls-1{fill:#f4f4f4;}.cls-2,.cls-5,.cls-7{font-size:19.68px;font-family:Roboto-Regular, Roboto;}.cls-3,.cls-5{letter-spacing:0.5em;}.cls-4,.cls-7{letter-spacing:0.5em;}.cls-6{letter-spacing:0em;}.cls-8{letter-spacing:0em;}.cls-9{letter-spacing:0.44em;}.cls-10{letter-spacing:-0.02em;}.cls-11{fill:#e02020;}.cls-12{fill:none;stroke:#727272;stroke-miterlimit:10;stroke-width:1.87px;}</style></defs><rect class="cls-1" width="947.99" height="801.37" rx="90.39"/><text class="cls-2" transform="translate(71.66 730.72)"><tspan class="cls-3">MO</tspan><tspan x="50.39" y="0">N</tspan></text><text class="cls-2" transform="translate(201.38 730.72)"><tspan class="cls-4">TU</tspan><tspan x="44.18" y="0">E</tspan></text><text class="cls-5" transform="translate(323.64 730.72)">WE<tspan class="cls-6" x="48.32" y="0">D</tspan></text><text class="cls-2" transform="translate(450.34 730.72)"><tspan class="cls-4">TH</tspan><tspan x="45.45" y="0">U</tspan></text><text class="cls-7" transform="translate(580.62 730.72)">FR<tspan class="cls-8" x="42.67" y="0">I</tspan></text><text class="cls-5" transform="translate(702.67 730.72)">S<tspan class="cls-9" x="21.51" y="0">A</tspan><tspan class="cls-10" x="42.95" y="0">T</tspan></text><text class="cls-2" transform="translate(825.95 730.72)"><tspan class="cls-3">SU</tspan><tspan x="44.11" y="0">N</tspan></text><rect class="cls-11" x="73.28" y="202.5" width="61.14" height="473.42" rx="30.57"/><rect class="cls-11" x="197.95" y="202.5" width="61.14" height="473.42" rx="30.57"/><rect class="cls-11" x="322.62" y="506.17" width="61.14" height="169.75" rx="30.57"/><rect class="cls-11" x="447.29" y="506.17" width="61.14" height="169.75" rx="30.57"/><rect class="cls-11" x="821.29" y="97.92" width="61.14" height="577.99" rx="30.57"/><line class="cls-12" x1="571.96" y1="682.57" x2="633.1" y2="682.57"/><rect class="cls-11" x="696.63" y="336.42" width="61.14" height="339.49" rx="30.57"/><text class="cls-5" transform="translate(710.42 308.5)">5h</text><text class="cls-5" transform="translate(460.32 481.25)">5h</text><text class="cls-5" transform="translate(336.03 481.25)">5h</text><text class="cls-5" transform="translate(211.41 182.16)">8h</text><text class="cls-5" transform="translate(88.12 182.16)">8h</text><text class="cls-5" transform="translate(821.29 71.95)">10h</text></svg>