<svg id="Arrow_Button" data-name="Arrow Button" xmlns="http://www.w3.org/2000/svg" viewBox="0 0 574.16 314.78"><defs><style>.cls-1{fill:#b70202;}.cls-2{fill:#fff;}</style></defs><rect class="cls-1" width="574.16" height="314.78" rx="157.39"/><path class="cls-2" d="M161.16,145.11H148.22V181h-5.29V145.11H130v-4.34h31.14Z"/><path class="cls-2" d="M206.8,140.77v27.37a12.89,12.89,0,0,1-3.58,9.32,14.38,14.38,0,0,1-9.64,4.06l-1.41.06q-6.61,0-10.53-3.57t-4-9.81V140.77h5.26V168a8.39,8.39,0,0,0,9.26,9.21q4.5,0,6.9-2.41a9.2,9.2,0,0,0,2.39-6.77V140.77Z"/><path class="cls-2" d="M241.27,164.74h-9.46V181h-5.34V140.77H239.8c4.54,0,8,1,10.47,3.09s3.66,5.07,3.66,9a10.85,10.85,0,0,1-2,6.55,12.16,12.16,0,0,1-5.66,4.18l9.46,17.08V181H250Zm-9.46-4.34H240a9.2,9.2,0,0,0,6.29-2.05,6.93,6.93,0,0,0,2.33-5.49,7.31,7.31,0,0,0-2.22-5.73q-2.24-2-6.43-2h-8.13Z"/><path class="cls-2" d="M303.63,181H298.3L278,150v31h-5.34V140.77H278l20.32,31.16V140.77h5.28Z"/><path class="cls-2" d="M380.7,162.2a24.84,24.84,0,0,1-2,10.32,15.15,15.15,0,0,1-5.64,6.74,15.57,15.57,0,0,1-22.66-6.68,24,24,0,0,1-2.09-10v-2.91a24.72,24.72,0,0,1,2-10.26,15,15,0,0,1,14.16-9.18,15.58,15.58,0,0,1,8.53,2.34,15.12,15.12,0,0,1,5.68,6.77,25,25,0,0,1,2,10.33Zm-5.28-2.6q0-7.17-2.87-11a9.47,9.47,0,0,0-8.05-3.83,9.35,9.35,0,0,0-7.92,3.83q-2.9,3.82-3,10.63v3q0,6.93,2.91,10.9a10.23,10.23,0,0,0,16,.23q2.82-3.75,2.9-10.75Z"/><path class="cls-2" d="M430.93,181H425.6l-20.27-31v31H400V140.77h5.34l20.32,31.16V140.77h5.28Z"/></svg>