<svg xmlns="http://www.w3.org/2000/svg" xmlns:xlink="http://www.w3.org/1999/xlink" viewBox="0 0 1479.2 1280"><defs><style>.cls-1{fill:url(#linear-gradient);}.cls-2{fill:#ededed;stroke:#fff;stroke-miterlimit:10;stroke-width:4.89px;}</style><linearGradient id="linear-gradient" y1="391" x2="1479.2" y2="391" gradientUnits="userSpaceOnUse"><stop offset="0" stop-color="#231f20"/><stop offset="1" stop-color="#ed1c24"/></linearGradient></defs><g id="Knob"><path id="Temp_Arc" data-name="Temp Arc" class="cls-1" d="M1436.8,782a42.41,42.41,0,0,1-42.41-42.41A655,655,0,0,0,136.25,484.74,650.72,650.72,0,0,0,84.81,739.6,42.41,42.41,0,1,1,0,739.6,739.78,739.78,0,0,1,1421.06,451.7a735,735,0,0,1,58.14,287.9A42.4,42.4,0,0,1,1436.8,782Z"/><path id="Dial" class="cls-2" d="M1280,739.6c0,298.46-241.94,540.4-540.4,540.4S199.2,1038.06,199.2,739.6c0-286,222.16-520.09,503.32-539.15L739.6,57.83l36,142.55C1057.26,218.9,1280,453.24,1280,739.6Z"/></g></svg>