<svg id="Arrow_Button" data-name="Arrow Button" xmlns="http://www.w3.org/2000/svg" viewBox="0 0 574.83 315.45"><defs><style>.cls-1{fill:#e02020;stroke:#fff;stroke-miterlimit:10;stroke-width:0.67px;}.cls-2{fill:#fff;}</style></defs><rect class="cls-1" x="0.33" y="0.33" width="574.16" height="314.78" rx="157.39"/><path class="cls-2" d="M174.86,145.44H161.92v35.92h-5.28V145.44H143.72V141.1h31.14Z"/><path class="cls-2" d="M220.5,141.1v27.38a12.87,12.87,0,0,1-3.58,9.31,14.44,14.44,0,0,1-9.64,4.07l-1.41,0q-6.62,0-10.53-3.56t-4-9.82V141.1h5.26v27.27a9.2,9.2,0,0,0,2.4,6.78c1.61,1.62,3.89,2.42,6.86,2.42s5.3-.8,6.9-2.4a9.22,9.22,0,0,0,2.39-6.78V141.1Z"/><path class="cls-2" d="M255,165.07h-9.46v16.29h-5.34V141.1H253.5c4.54,0,8,1,10.47,3.1s3.66,5.07,3.66,9a10.9,10.9,0,0,1-2,6.56,12.14,12.14,0,0,1-5.66,4.17L269.4,181v.33h-5.7Zm-9.46-4.34h8.16a9.2,9.2,0,0,0,6.29-2,6.91,6.91,0,0,0,2.34-5.48,7.33,7.33,0,0,0-2.23-5.74q-2.24-2-6.43-2h-8.13Z"/><path class="cls-2" d="M317.34,181.36H312l-20.27-31v31h-5.34V141.1h5.34l20.32,31.16V141.1h5.29Z"/><path class="cls-2" d="M394.4,162.53a24.86,24.86,0,0,1-2,10.33,15.05,15.05,0,0,1-5.64,6.73,15.56,15.56,0,0,1-22.66-6.68,24,24,0,0,1-2.09-10V160a24.72,24.72,0,0,1,2-10.26,15.87,15.87,0,0,1,22.69-6.84,15,15,0,0,1,5.68,6.77,25,25,0,0,1,2,10.33Zm-5.28-2.6q0-7.16-2.87-11a9.5,9.5,0,0,0-8.05-3.83,9.37,9.37,0,0,0-7.92,3.83q-2.89,3.83-3,10.63v3q0,6.94,2.91,10.91a10.22,10.22,0,0,0,16,.22q2.82-3.75,2.9-10.74Z"/><path class="cls-2" d="M444.63,181.36H439.3l-20.27-31v31h-5.34V141.1H419l20.32,31.16V141.1h5.28Z"/></svg>