<svg id="Layer_1" data-name="Layer 1" xmlns="http://www.w3.org/2000/svg" viewBox="0 0 1280 1280"><defs><style>.cls-1{fill:#e02020;}.cls-2{fill:#262626;}</style></defs><path class="cls-1" d="M1229.7,426.67H853.33V55.33A55.33,55.33,0,0,0,798,0H55.21A55.21,55.21,0,0,0,0,55.21V371.46a55.21,55.21,0,0,0,55.21,55.21H426.67V853.33H853.33v368.11A58.56,58.56,0,0,0,911.9,1280h309.54a58.56,58.56,0,0,0,58.56-58.56V477A50.3,50.3,0,0,0,1229.7,426.67Z"/><path class="cls-2" d="M50.3,853.33H426.67a0,0,0,0,1,0,0V1229.7a50.3,50.3,0,0,1-50.3,50.3H50.3A50.3,50.3,0,0,1,0,1229.7V903.63A50.3,50.3,0,0,1,50.3,853.33Z"/></svg>