<svg id="Trust_Logo" data-name="Trust Logo" xmlns="http://www.w3.org/2000/svg" viewBox="0 0 1280 1280"><defs><style>.cls-1{fill:#e02020;}.cls-2{fill:#262626;}</style></defs><path class="cls-1" d="M1226.24,426.67H853.33V55.38A55.37,55.37,0,0,0,798,0H50.3A50.3,50.3,0,0,0,0,50.3V376.37a50.3,50.3,0,0,0,50.3,50.3H426.67V853.33H853.33V1226a54,54,0,0,0,54,54H1226a54,54,0,0,0,54-54V480.43A53.76,53.76,0,0,0,1226.24,426.67Z"/><path class="cls-2" d="M50.3,853.33H426.67a0,0,0,0,1,0,0V1229.7a50.3,50.3,0,0,1-50.3,50.3H50.3A50.3,50.3,0,0,1,0,1229.7V903.63A50.3,50.3,0,0,1,50.3,853.33Z"/></svg>