<svg id="Arrow_Button" data-name="Arrow Button" xmlns="http://www.w3.org/2000/svg" viewBox="0 0 575.37 315.99"><defs><style>.cls-1{fill:#ededed;stroke:#fff;stroke-miterlimit:10;stroke-width:1.21px;}.cls-2{fill:#d83030;}</style></defs><rect class="cls-1" x="0.61" y="0.61" width="574.16" height="314.78" rx="157.39"/><path class="cls-2" d="M159.34,145.71H146.41v35.92h-5.29V145.71H128.21v-4.34h31.13Z"/><path class="cls-2" d="M205,141.37v27.38a12.87,12.87,0,0,1-3.59,9.32,14.45,14.45,0,0,1-9.63,4.06l-1.41.05q-6.62,0-10.54-3.56t-4-9.82V141.37h5.26v27.27a9.2,9.2,0,0,0,2.4,6.78c1.6,1.62,3.89,2.42,6.86,2.42s5.3-.8,6.9-2.4a9.22,9.22,0,0,0,2.39-6.78V141.37Z"/><path class="cls-2" d="M239.45,165.35H230v16.28h-5.34V141.37H238q6.8,0,10.47,3.1t3.66,9a10.88,10.88,0,0,1-2,6.56,12.14,12.14,0,0,1-5.66,4.17l9.46,17.09v.33h-5.7ZM230,161h8.16a9.2,9.2,0,0,0,6.29-2.05,6.93,6.93,0,0,0,2.33-5.48,7.31,7.31,0,0,0-2.22-5.73,9.45,9.45,0,0,0-6.43-2H230Z"/><path class="cls-2" d="M301.82,181.63h-5.33l-20.27-31v31h-5.34V141.37h5.34l20.32,31.16V141.37h5.28Z"/><path class="cls-2" d="M378.89,162.8a24.86,24.86,0,0,1-2,10.33,15.12,15.12,0,0,1-5.64,6.73,15.56,15.56,0,0,1-22.66-6.68,24,24,0,0,1-2.09-10v-2.9a24.56,24.56,0,0,1,2-10.26,14.91,14.91,0,0,1,14.16-9.18,15.6,15.6,0,0,1,8.53,2.34,15,15,0,0,1,5.68,6.77,25,25,0,0,1,2,10.33Zm-5.28-2.6q0-7.15-2.88-11a9.48,9.48,0,0,0-8-3.83,9.37,9.37,0,0,0-7.92,3.83q-2.89,3.82-3,10.63v3q0,6.94,2.92,10.91a10.22,10.22,0,0,0,16,.22q2.82-3.75,2.9-10.74Z"/><path class="cls-2" d="M420.38,163.85H403.49v17.78h-5.31V141.37h24.94v4.34H403.49v13.8h16.89Z"/><path class="cls-2" d="M463,163.85H446.12v17.78h-5.31V141.37h24.94v4.34H446.12v13.8H463Z"/></svg>